#!OML:ASF F:\VICON\USERDATA\INSTALL\rory3\rory3.ASF
:FULLY-SPECIFIED
:DEGREES
3188
root 2.37468 14.5999 -17.3295 -535.579 -42.0554 531.278
lowerback 16.1353 -1.5833 -11.9421
upperback -2.21039 -4.50267 0.519707
thorax -10.631 -1.39833 8.45371
lowerneck -11.6815 -6.02357 -4.94358
upperneck 19.6852 -9.01354 5.1105
head 8.50621 -4.33701 1.50204
rclavicle -5.00689e-015 -1.19271e-015
rhumerus 26.9483 53.317 -49.7795
rradius 111.197
rwrist 20.5579
rhand -0.704087 27.3059
rfingers 7.12502
rthumb 24.9158 -1.08999
lclavicle -5.00689e-015 -1.19271e-015
lhumerus -15.5303 -51.5861 95.327
lradius 54.02
lwrist 79.842
lhand 3.90299 31.8355
lfingers 7.12502
lthumb 29.3231 59.5432
rfemur -38.5724 -20.8141 18.9119
rtibia 69.4664
rfoot -31.8585 -6.39658
rtoes 16.363
lfemur -5.70949 22.2641 -7.89942
ltibia 51.3181
lfoot -26.0253 16.4721
ltoes -30.0135
3189
root 2.37486 14.6038 -17.3497 -535.765 -42.1419 531.519
lowerback 16.0436 -1.61722 -11.8745
upperback -2.11608 -4.5009 0.62804
thorax -10.4645 -1.41476 8.52501
lowerneck -11.665 -6.01356 -4.80444
upperneck 19.5593 -8.96526 4.91902
head 8.44205 -4.32024 1.42434
rclavicle -5.07522e-015 -4.37326e-015
rhumerus 27.2777 53.1804 -49.4904
rradius 111.241
rwrist 20.2461
rhand -0.542822 27.063
rfingers 7.12502
rthumb 25.0703 -1.3114
lclavicle -5.07522e-015 -4.37326e-015
lhumerus -15.2568 -51.5449 95.184
lradius 53.9485
lwrist 79.792
lhand 3.95564 31.6606
lfingers 7.12502
lthumb 29.3734 59.3595
rfemur -38.3857 -20.8096 19.1498
rtibia 69.3714
rfoot -32.3199 -6.4651
rtoes 17.043
lfemur -5.67523 22.2405 -7.58536
ltibia 51.3877
lfoot -25.8983 16.4807
ltoes -30.7609
3190
root 2.38023 14.6002 -17.3696 -535.821 -42.1955 531.608
lowerback 15.9571 -1.59088 -11.9477
upperback -2.05166 -4.45795 0.681466
thorax -10.3415 -1.40089 8.60761
lowerneck -11.5691 -6.03937 -4.9545
upperneck 19.399 -8.99871 5.10413
head 8.38869 -4.33041 1.51069
rclavicle -2.05121e-014 1.19271e-014
rhumerus 27.371 53.072 -49.311
rradius 111.332
rwrist 20.1445
rhand -0.545118 27.1411
rfingers 7.12502
rthumb 25.0681 -1.23365
lclavicle -2.05121e-014 1.19271e-014
lhumerus -15.0192 -51.5422 95.0948
lradius 53.8884
lwrist 79.7834
lhand 3.8755 31.7652
lfingers 7.12502
lthumb 29.2968 59.4775
rfemur -38.3168 -20.7368 19.2984
rtibia 69.3449
rfoot -32.5516 -6.53836
rtoes 17.7215
lfemur -5.70009 22.2657 -7.40949
ltibia 51.4573
lfoot -25.5691 16.6847
ltoes -31.8511
3191
root 2.38647 14.6017 -17.3828 -535.826 -42.2362 531.657
lowerback 16.0302 -1.56168 -11.9112
upperback -2.06114 -4.42226 0.682804
thorax -10.4052 -1.3802 8.58712
lowerneck -11.6322 -6.03201 -5.16721
upperneck 19.4785 -9.00395 5.33611
head 8.44878 -4.32494 1.61812
rclavicle 2.99047e-014 -2.38542e-015
rhumerus 27.2397 52.8246 -49.4694
rradius 111.326
rwrist 19.9081
rhand -0.198642 27.8411
rfingers 7.12502
rthumb 25.4001 -0.486859
lclavicle 2.99047e-014 -2.38542e-015
lhumerus -15.2722 -51.4353 95.0993
lradius 54.1278
lwrist 79.5715
lhand 3.80265 32.3214
lfingers 7.12502
lthumb 29.2273 60.0458
rfemur -38.3047 -20.5826 19.4199
rtibia 69.3228
rfoot -32.4561 -6.74902
rtoes 17.1454
lfemur -5.7793 22.2772 -7.31821
ltibia 51.49
lfoot -25.1585 16.9684
ltoes -33.3184
3192
root 2.38652 14.6032 -17.3929 -535.667 -42.2694 531.49
lowerback 16.0227 -1.55393 -11.9524
upperback -2.05887 -4.42309 0.652615
thorax -10.3982 -1.38026 8.57601
lowerneck -11.7899 -6.02501 -5.12507
upperneck 19.5824 -8.98788 5.27306
head 8.50654 -4.31531 1.58646
rclavicle 4.72797e-014 1.31198e-014
rhumerus 27.2724 52.7636 -49.3964
rradius 111.401
rwrist 19.8984
rhand -0.109772 27.699
rfingers 7.12502
rthumb 25.4852 -0.616814
lclavicle 4.72797e-014 1.31198e-014
lhumerus -15.7444 -51.4715 95.1266
lradius 54.5031
lwrist 79.3341
lhand 3.89083 33.4308
lfingers 7.12502
lthumb 29.3115 61.1406
rfemur -38.3451 -20.5908 19.3198
rtibia 69.3758
rfoot -31.3378 -7.2176
rtoes 13.94
lfemur -5.81514 22.1985 -7.44561
ltibia 51.4748
lfoot -25.004 16.9259
ltoes -32.9591
3193
root 2.38421 14.6057 -17.4036 -535.344 -42.3864 531.118
lowerback 15.9252 -1.57628 -12.1642
upperback -2.02791 -4.48799 0.593415
thorax -10.2835 -1.41263 8.63411
lowerneck -11.806 -6.0213 -4.90369
upperneck 19.5238 -8.98502 5.12666
head 8.47181 -4.3107 1.50292
rclavicle -2.2239e-014 1.82882e-014
rhumerus 27.2608 52.7101 -49.4281
rradius 111.421
rwrist 19.8889
rhand 0.0150952 27.7654
rfingers 7.12502
rthumb 25.6048 -0.533324
lclavicle -2.2239e-014 1.82882e-014
lhumerus -15.7999 -51.5117 95.0015
lradius 54.7696
lwrist 79.4074
lhand 3.82602 33.7905
lfingers 7.12502
lthumb 29.2496 61.5111
rfemur -38.3923 -20.7428 19.0236
rtibia 69.4542
rfoot -30.9822 -7.31865
rtoes 13.3273
lfemur -5.8438 22.0697 -7.72099
ltibia 51.4158
lfoot -24.8402 16.8253
ltoes -32.2571
3194
root 2.38573 14.6041 -17.4131 -535.101 -42.5073 530.806
lowerback 15.9907 -1.57733 -12.2592
upperback -2.05098 -4.53394 0.483464
thorax -10.341 -1.42805 8.58028
lowerneck -11.9201 -5.98856 -4.82384
upperneck 19.6967 -8.98094 5.16534
head 8.54892 -4.29825 1.49768
rclavicle 4.29623e-014 3.18055e-015
rhumerus 27.0112 52.6329 -49.6448
rradius 111.434
rwrist 19.8429
rhand 0.0304633 27.8911
rfingers 7.12502
rthumb 25.6196 -0.405473
lclavicle 4.29623e-014 3.18055e-015
lhumerus -15.7882 -51.4263 94.9503
lradius 54.8668
lwrist 79.4037
lhand 3.88993 32.7474
lfingers 7.12502
lthumb 29.3106 60.4573
rfemur -38.4144 -20.9156 18.7791
rtibia 69.5439
rfoot -31.0407 -7.10361
rtoes 13.7736
lfemur -5.86427 21.9805 -7.94783
ltibia 51.3524
lfoot -24.4926 17.0078
ltoes -32.5319
3195
root 2.38853 14.6033 -17.4227 -534.979 -42.5632 530.707
lowerback 16.0843 -1.53451 -12.149
upperback -2.09943 -4.48184 0.401134
thorax -10.477 -1.39983 8.42386
lowerneck -12.0665 -6.02503 -4.82499
upperneck 19.825 -9.04398 5.19489
head 8.62419 -4.32119 1.49404
rclavicle 8.00357e-014 -2.78299e-015
rhumerus 26.8454 52.6569 -49.5977
rradius 111.547
rwrist 20.0969
rhand -0.49887 27.3893
rfingers 7.12502
rthumb 25.1125 -0.979244
lclavicle 8.00357e-014 -2.78299e-015
lhumerus -15.8862 -51.4979 95.0294
lradius 54.8788
lwrist 79.2756
lhand 4.0269 31.9309
lfingers 7.12502
lthumb 29.4414 59.6179
rfemur -38.4829 -20.969 18.7585
rtibia 69.6031
rfoot -31.11 -6.88622
rtoes 14.6156
lfemur -5.94347 21.9795 -7.99943
ltibia 51.3516
lfoot -24.1982 17.1136
ltoes -33.126
3196
root 2.39018 14.6081 -17.4374 -534.951 -42.6362 530.756
lowerback 15.9491 -1.51992 -12.0755
upperback -2.02584 -4.41816 0.439701
thorax -10.3299 -1.38783 8.39803
lowerneck -12.3012 -6.09329 -4.99856
upperneck 19.8913 -9.1029 5.25449
head 8.70439 -4.34607 1.52687
rclavicle 1.10499e-013 3.57812e-014
rhumerus 27.1542 52.8179 -48.9317
rradius 111.872
rwrist 20.4997
rhand -1.24145 26.294
rfingers 7.12502
rthumb 24.4008 -2.17229
lclavicle 1.10499e-013 3.57812e-014
lhumerus -15.6798 -51.6813 94.9695
lradius 54.8949
lwrist 79.4121
lhand 3.96284 31.8175
lfingers 7.12502
lthumb 29.3802 59.5152
rfemur -38.4895 -20.9882 18.8657
rtibia 69.6033
rfoot -31.2795 -6.74765
rtoes 15.5821
lfemur -6.00392 21.938 -7.87411
ltibia 51.3943
lfoot -24.1592 16.7495
ltoes -32.8735
3197
root 2.39098 14.6111 -17.4511 -534.81 -42.7387 530.643
lowerback 15.8614 -1.52151 -12.0766
upperback -2.00088 -4.41008 0.411124
thorax -10.2547 -1.39267 8.35689
lowerneck -12.5571 -6.14783 -5.33966
upperneck 20.1313 -9.18361 5.53342
head 8.8687 -4.37462 1.65442
rclavicle 7.91411e-014 1.82882e-014
rhumerus 27.0635 52.804 -48.9083
rradius 112.008
rwrist 20.5834
rhand -1.35634 25.9834
rfingers 7.12502
rthumb 24.2906 -2.49766
lclavicle 7.91411e-014 1.82882e-014
lhumerus -15.6247 -51.8647 94.9604
lradius 54.9382
lwrist 79.5263
lhand 3.86502 31.5699
lfingers 7.12502
lthumb 29.2868 59.284
rfemur -38.4869 -21.0794 18.8202
rtibia 69.6138
rfoot -31.3375 -6.73786
rtoes 15.7345
lfemur -6.10097 21.8079 -7.89042
ltibia 51.4911
lfoot -24.2865 16.2152
ltoes -32.6488
